<?xml version="1.0" encoding="UTF-8"?>
<svg id="Layer_1" data-name="Layer 1" xmlns="http://www.w3.org/2000/svg" viewBox="0 0 934.83 374.22">
  <defs>
    <style>
      .cls-1 {
        fill: #51372a;
        stroke-width: 0px;
      }
    </style>
  </defs>
  <g>
    <g>
      <path class="cls-1" d="m226.12,348.32c-2.77,0-5.91-.96-9.41-2.87-3.5-1.91-6.57-5.01-9.21-9.31-2.64-4.29-3.96-10-3.96-17.13v-2.67c0-.86.07-1.75.2-2.67.79-7.26,1.62-15.97,2.48-26.14.86-10.16,1.65-20.95,2.38-32.37.72-11.42,1.35-22.54,1.88-33.36-2.91-2.24-5.48-4.88-7.72-7.92-2.25-3.03-3.37-5.61-3.37-7.72,0-1.19.4-2.01,1.19-2.47.79-.46,1.65-.69,2.57-.69,3.69,0,8.05-.13,13.07-.4,5.01-.26,10-.5,14.95-.69s9.14-.3,12.57-.3c7.52,0,14.55,1.26,21.09,3.76,6.53,2.51,12.28,5.74,17.23,9.7,4.95,3.96,8.81,8.19,11.58,12.67,2.77,4.49,4.16,8.71,4.16,12.67,0,8.05-1.75,15.48-5.25,22.28-3.5,6.8-8.05,12.97-13.66,18.51-5.61,5.54-11.65,10.49-18.12,14.85-3.3,2.25-6.34,3.83-9.11,4.75-2.77.93-5.28,1.39-7.52,1.39s-4.19-.4-5.84-1.19c-1.65-.79-3-1.78-4.06-2.97-.66,7.26-1.32,14.75-1.98,22.47-.66,7.72-1.26,16.01-1.78,24.85-.13,1.19-.59,1.98-1.39,2.38-.79.4-1.78.59-2.97.59Zm11.88-92.86c-.4,5.28-.83,10.4-1.29,15.35-.46,4.95-.96,9.93-1.48,14.95,11.88-8.32,20.33-16.56,25.34-24.75,5.01-8.18,7.52-15.44,7.52-21.78,0-5.41-1.39-9.77-4.16-13.07-1.98,0-3.9-.03-5.74-.1-1.85-.07-3.63-.1-5.35-.1-3.96,0-7.59.03-10.89.1-3.3.07-6.4.17-9.31.3,1.85,2.11,3.27,4.88,4.26,8.32.99,3.43,1.49,7.79,1.49,13.07,0,1.19-.03,2.41-.1,3.66-.07,1.26-.17,2.61-.3,4.06Z"/>
      <path class="cls-1" d="m332.25,348.12c-3.7,0-7.42-1.16-11.19-3.46-3.76-2.31-7.26-5.41-10.49-9.31-3.24-3.89-5.84-8.22-7.82-12.97-1.98-4.75-2.97-9.5-2.97-14.26,0-9.37,1.35-18.68,4.06-27.92,2.7-9.24,6.47-17.62,11.29-25.15,4.82-7.52,10.52-13.53,17.13-18.02,6.6-4.49,13.73-6.73,21.38-6.73,3.43,0,7.19,1.02,11.29,3.07,4.09,2.05,7.06,5.05,8.91,9.01,5.01,2.38,8.71,5.94,11.09,10.69s3.3,9.11,2.77,13.07c-.4,3.17-1.78,6.77-4.16,10.79-2.38,4.03-5.41,8.12-9.11,12.28-3.7,4.16-7.79,7.99-12.28,11.48-4.49,3.5-9.08,6.34-13.76,8.51-4.69,2.18-9.21,3.27-13.56,3.27-1.58,0-3.3-.53-5.15-1.58.4,4.23,1.62,7.23,3.66,9.01,2.04,1.78,4.78,2.67,8.22,2.67,5.02,0,10.56-1.78,16.63-5.35,6.07-3.56,12.54-8.32,19.4-14.26,3.04,1.45,5.35,3.33,6.93,5.64,1.58,2.31,2.18,5.18,1.78,8.61-.53,3.96-2.61,7.76-6.24,11.38-3.63,3.63-8.19,6.93-13.66,9.9-5.48,2.97-11.22,5.31-17.23,7.03-6.01,1.71-11.65,2.57-16.93,2.57Zm29.5-96.03c-5.15.27-9.83,2.64-14.06,7.13-4.23,4.49-7.79,10-10.69,16.53-2.91,6.53-5.02,13.04-6.34,19.5,4.36-.92,8.48-3.2,12.38-6.83,3.89-3.63,7.33-7.79,10.3-12.47,2.97-4.68,5.25-9.24,6.83-13.66,1.58-4.42,2.11-7.82,1.58-10.2Z"/>
      <path class="cls-1" d="m430.06,348.72c-2.91,0-6.37-.89-10.39-2.67-4.03-1.78-7.03-4.92-9.01-9.41-3.43-2.11-6.01-4.98-7.72-8.61-1.72-3.63-2.57-7.89-2.57-12.77,0-3.17.07-7.79.2-13.86.13-6.07.36-13.07.69-20.99.33-7.92.82-16.24,1.48-24.95-3.56-1.58-6.77-3.93-9.6-7.03-2.84-3.1-4.26-5.64-4.26-7.62,0-1.58.3-2.84.89-3.76.59-.92,1.75-1.45,3.46-1.58,3.69-.53,7.52-.99,11.48-1.39.53-4.22,1.05-8.32,1.58-12.28.53-3.96,1.12-7.85,1.78-11.68.4-2.11.99-3.53,1.78-4.26.79-.72,1.91-1.09,3.37-1.09,3.96,0,7.82.99,11.58,2.97,3.76,1.98,6.86,4.23,9.31,6.73,2.44,2.51,3.53,4.55,3.27,6.14-.66,3.96-1.19,7.66-1.58,11.09h5.15c1.98,0,4.32.56,7.03,1.68,2.7,1.12,5.31,2.54,7.82,4.26,2.51,1.72,4.62,3.53,6.34,5.44,1.71,1.92,2.57,3.66,2.57,5.25,0,2.38-.59,3.9-1.78,4.55-1.19.66-3.04.99-5.54.99-2.25,0-5.68.17-10.3.5-4.62.33-9.5.69-14.65,1.09-1.45,11.22-2.74,22.37-3.86,33.46-1.12,11.09-1.88,22.24-2.28,33.46,5.01-1.45,9.04-3.46,12.08-6.04,3.04-2.57,5.51-5.01,7.42-7.33,1.91-2.31,3.73-3.79,5.45-4.46.79-.4,1.65-.59,2.57-.59,2.38,0,4.39,1.19,6.04,3.56,1.65,2.38,2.48,5.35,2.48,8.91,0,3.96-1.16,7.85-3.46,11.68-2.31,3.83-5.25,7.29-8.81,10.4-3.56,3.1-7.13,5.58-10.69,7.42-3.56,1.85-6.67,2.77-9.31,2.77Z"/>
      <path class="cls-1" d="m507.08,348.32c-6.86,0-13.46-.99-19.8-2.97-6.34-1.98-11.52-5.05-15.54-9.21-4.03-4.16-6.04-9.34-6.04-15.54,0-3.43.69-6.47,2.08-9.11,1.39-2.64,3.33-3.96,5.84-3.96,2.11,3.43,4.85,6.4,8.22,8.91,3.37,2.51,6.93,4.39,10.69,5.64,3.76,1.26,7.16,1.88,10.2,1.88s5.54-.62,7.52-1.88c1.98-1.25,2.97-3.2,2.97-5.84,0-1.58-.59-3.1-1.78-4.55-1.19-1.45-3.5-2.77-6.93-3.96l-16.83-5.74c-6.47-2.24-10.86-5.02-13.17-8.32-2.31-3.3-3.46-7.85-3.46-13.66,0-4.75,1.15-9.93,3.46-15.54,2.31-5.61,5.48-10.99,9.5-16.14,4.02-5.15,8.58-9.34,13.66-12.57,5.08-3.23,10.39-4.85,15.94-4.85,4.49,0,8.58.43,12.28,1.29,3.69.86,6.93,3.14,9.7,6.83,4.36,1.98,7.55,4.69,9.6,8.12,2.04,3.43,3.07,6.47,3.07,9.11,0,2.77-.73,5.68-2.18,8.71-1.45,3.04-3,6.14-4.65,9.31-1.65,3.17-2.94,6.27-3.86,9.31-.27.92-.63,1.72-1.09,2.38-.46.66-1.35.99-2.67.99-1.45,0-3.1-.66-4.95-1.98-1.85-1.32-3.66-2.94-5.45-4.85-1.78-1.91-3.24-3.83-4.36-5.74-1.12-1.91-1.68-3.4-1.68-4.46,0-3.17.86-6.2,2.57-9.11,1.71-2.9,2.57-5.21,2.57-6.93,0-.66-.07-1.22-.2-1.68-.13-.46-.59-.69-1.39-.69-2.51,0-5.18,1.55-8.02,4.65-2.84,3.1-5.25,6.93-7.23,11.48-1.98,4.55-2.97,9.08-2.97,13.56,0,2.64,2.04,4.69,6.14,6.14l19.6,7.52c10.43,4.09,15.64,10.69,15.64,19.8,0,6.87-1.75,12.84-5.25,17.92-3.5,5.08-8.09,8.98-13.76,11.68-5.68,2.7-11.68,4.06-18.02,4.06Z"/>
    </g>
    <g>
      <ellipse class="cls-1" cx="636.73" cy="240.08" rx="24.28" ry="18.58" transform="translate(358.9 861.27) rotate(-86.56)"/>
      <ellipse class="cls-1" cx="594.55" cy="254.81" rx="18.58" ry="23.17" transform="translate(-26.21 72.94) rotate(-6.87)"/>
      <ellipse class="cls-1" cx="680.84" cy="248.14" rx="25.92" ry="18.89" transform="translate(283.38 854.06) rotate(-76.76)"/>
      <path class="cls-1" d="m654.42,278.57c-26.06-6.83-62.4,13.42-58.25,36.51,3.91,21.74,34.12,12.26,46.38,16.82,15.97,5.94,36,23.43,47.39,5.94,12.84-19.76-12.64-53.26-35.52-59.27h0Z"/>
      <ellipse class="cls-1" cx="715.35" cy="279.82" rx="24.01" ry="18.61" transform="translate(115.34 759.42) rotate(-60)"/>
    </g>
  </g>
  <g>
    <path class="cls-1" d="m54.48,172.22c-2.77,0-5.91-.96-9.41-2.87-3.5-1.91-6.57-5.01-9.21-9.31-2.64-4.29-3.96-10-3.96-17.13v-2.67c0-.86.07-1.75.2-2.67.79-7.26,1.62-15.97,2.48-26.14.86-10.16,1.65-20.95,2.38-32.37.72-11.42,1.35-22.54,1.88-33.36-2.91-2.24-5.48-4.88-7.72-7.92-2.25-3.03-3.37-5.61-3.37-7.72,0-1.19.4-2.01,1.19-2.47.79-.46,1.65-.69,2.57-.69,3.69,0,8.05-.13,13.07-.4,5.01-.26,10-.5,14.95-.69s9.14-.3,12.57-.3c7.52,0,14.55,1.26,21.09,3.76,6.53,2.51,12.28,5.74,17.23,9.7,4.95,3.96,8.81,8.19,11.58,12.67,2.77,4.49,4.16,8.71,4.16,12.67,0,8.05-1.75,15.48-5.25,22.28-3.5,6.8-8.05,12.97-13.66,18.51-5.61,5.54-11.65,10.49-18.12,14.85-3.3,2.25-6.34,3.83-9.11,4.75-2.77.93-5.28,1.39-7.52,1.39s-4.19-.4-5.84-1.19c-1.65-.79-3-1.78-4.06-2.97-.66,7.26-1.32,14.75-1.98,22.47-.66,7.72-1.26,16.01-1.78,24.85-.13,1.19-.59,1.98-1.39,2.38-.79.4-1.78.59-2.97.59Zm11.88-92.86c-.4,5.28-.83,10.4-1.29,15.35-.46,4.95-.96,9.93-1.48,14.95,11.88-8.32,20.33-16.56,25.34-24.75,5.01-8.18,7.52-15.44,7.52-21.78,0-5.41-1.39-9.77-4.16-13.07-1.98,0-3.9-.03-5.74-.1-1.85-.07-3.63-.1-5.35-.1-3.96,0-7.59.03-10.89.1-3.3.07-6.4.17-9.31.3,1.85,2.11,3.27,4.88,4.26,8.32.99,3.43,1.49,7.79,1.49,13.07,0,1.19-.03,2.41-.1,3.66-.07,1.26-.17,2.61-.3,4.06Z"/>
    <path class="cls-1" d="m155.46,172.42c-4.09,0-7.95-.69-11.58-2.08-3.63-1.39-6.57-4.06-8.81-8.02-4.09-2.24-6.9-4.78-8.42-7.62-1.52-2.84-2.28-6.04-2.28-9.6,0-7.65,1.81-14.45,5.45-20.39,3.63-5.94,8.48-10.62,14.55-14.06,6.07-3.43,12.74-5.15,20-5.15,3.04,0,5.97.17,8.81.49,2.84.33,5.77,1.22,8.81,2.67.4-2.64.86-5.94,1.39-9.9.53-3.96.79-7.65.79-11.09,0-3.04-.3-5.58-.89-7.62-.59-2.04-1.75-3.07-3.46-3.07-2.25,0-4.36.69-6.34,2.08-1.98,1.39-3.93,3.04-5.84,4.95-1.92,1.92-3.9,3.56-5.94,4.95-2.05,1.39-4.26,2.08-6.63,2.08-2.64,0-5.71-.92-9.21-2.77-3.5-1.85-6.5-4.06-9.01-6.63-2.51-2.57-3.76-4.85-3.76-6.83,0-1.32,1.25-3.1,3.76-5.35,2.51-2.24,5.87-4.55,10.1-6.93,4.22-2.38,8.91-4.39,14.06-6.04,5.15-1.65,10.36-2.47,15.64-2.47,3.43,0,6.8.46,10.1,1.39,3.3.93,6.4,2.44,9.31,4.55,6.34,1.85,10.92,4.82,13.76,8.91,2.84,4.09,4.26,10.03,4.26,17.82,0,2.38-.23,6.53-.69,12.47-.46,5.94-1.02,12.84-1.68,20.69-.66,7.85-1.39,16.01-2.18,24.45-.13,3.17.23,6.83,1.09,10.99.86,4.16,1.29,7.76,1.29,10.79,0,1.85-.33,3.37-.99,4.55-.66,1.19-1.92,1.78-3.76,1.78-2.38,0-5.22-.56-8.51-1.68-3.3-1.12-6.53-2.7-9.7-4.75-3.17-2.04-5.74-4.39-7.72-7.03-3.43,3.83-7.39,7.03-11.88,9.6-4.49,2.57-9.11,3.86-13.86,3.86Zm1.98-24.75c2.11,0,4.68-.59,7.72-1.78,3.04-1.19,6-2.67,8.91-4.46,2.9-1.78,5.21-3.53,6.93-5.25l.4-6.14c-2.25-2.24-4.88-3.37-7.92-3.37s-5.87.96-8.91,2.87c-3.04,1.92-5.61,4.23-7.72,6.93-2.11,2.71-3.17,5.32-3.17,7.82,0,1.32.36,2.21,1.09,2.67.72.46,1.61.69,2.67.69Z"/>
    <g>
      <ellipse class="cls-1" cx="318.22" cy="68.26" rx="18.24" ry="23.83" transform="translate(-5.73 36.97) rotate(-6.59)"/>
      <ellipse class="cls-1" cx="360.36" cy="80.42" rx="22.74" ry="18.24" transform="translate(256.74 434.81) rotate(-86.28)"/>
      <ellipse class="cls-1" cx="275.42" cy="78.54" rx="18.55" ry="25.44" transform="translate(-10.97 80.91) rotate(-16.39)"/>
      <path class="cls-1" d="m302.96,106.94c25.18-8.1,61.89,9.78,59.07,32.64-2.66,21.52-32.78,13.86-44.55,18.99-15.34,6.68-34.03,24.91-46.13,8.38-13.65-18.68,9.52-52.88,31.62-60.01h0Z"/>
      <ellipse class="cls-1" cx="243.31" cy="111.46" rx="18.26" ry="23.57" transform="translate(-21.35 151.2) rotate(-33.15)"/>
    </g>
    <g>
      <path class="cls-1" d="m413.13,172.02c-3.7,0-7.42-1.16-11.19-3.46-3.76-2.31-7.26-5.41-10.49-9.31-3.24-3.89-5.84-8.22-7.82-12.97-1.98-4.75-2.97-9.5-2.97-14.26,0-9.37,1.35-18.68,4.06-27.92,2.7-9.24,6.47-17.62,11.29-25.15,4.82-7.52,10.52-13.53,17.13-18.02,6.6-4.49,13.73-6.73,21.38-6.73,3.43,0,7.19,1.02,11.29,3.07,4.09,2.05,7.06,5.05,8.91,9.01,5.01,2.38,8.71,5.94,11.09,10.69s3.3,9.11,2.77,13.07c-.4,3.17-1.78,6.77-4.16,10.79-2.38,4.03-5.41,8.12-9.11,12.28-3.7,4.16-7.79,7.99-12.28,11.48-4.49,3.5-9.08,6.34-13.76,8.51-4.69,2.18-9.21,3.27-13.56,3.27-1.58,0-3.3-.53-5.15-1.58.4,4.23,1.62,7.23,3.66,9.01,2.04,1.78,4.78,2.67,8.22,2.67,5.02,0,10.56-1.78,16.63-5.35,6.07-3.56,12.54-8.32,19.4-14.26,3.04,1.45,5.35,3.33,6.93,5.64,1.58,2.31,2.18,5.18,1.78,8.61-.53,3.96-2.61,7.76-6.24,11.38-3.63,3.63-8.19,6.93-13.66,9.9-5.48,2.97-11.22,5.31-17.23,7.03-6.01,1.71-11.65,2.57-16.93,2.57Zm29.5-96.03c-5.15.27-9.83,2.64-14.06,7.13-4.23,4.49-7.79,10-10.69,16.53-2.91,6.53-5.02,13.04-6.34,19.5,4.36-.92,8.48-3.2,12.38-6.83,3.89-3.63,7.33-7.79,10.3-12.47,2.97-4.68,5.25-9.24,6.83-13.66,1.58-4.42,2.11-7.82,1.58-10.2Z"/>
      <path class="cls-1" d="m516.88,172.22c-6.86,0-13.46-.99-19.8-2.97s-11.52-5.05-15.54-9.21c-4.03-4.16-6.04-9.34-6.04-15.54,0-3.43.69-6.47,2.08-9.11,1.39-2.64,3.33-3.96,5.84-3.96,2.11,3.43,4.85,6.4,8.22,8.91,3.37,2.51,6.93,4.39,10.69,5.64,3.76,1.26,7.16,1.88,10.2,1.88s5.54-.62,7.52-1.88c1.98-1.25,2.97-3.2,2.97-5.84,0-1.58-.59-3.1-1.78-4.55-1.19-1.45-3.5-2.77-6.93-3.96l-16.83-5.74c-6.47-2.24-10.86-5.01-13.17-8.32-2.31-3.3-3.46-7.85-3.46-13.66,0-4.75,1.15-9.93,3.46-15.54,2.31-5.61,5.48-10.99,9.5-16.14,4.02-5.15,8.58-9.34,13.66-12.57,5.08-3.23,10.39-4.85,15.94-4.85,4.49,0,8.58.43,12.28,1.29,3.69.86,6.93,3.14,9.7,6.83,4.36,1.98,7.55,4.69,9.6,8.12,2.04,3.43,3.07,6.47,3.07,9.11,0,2.77-.73,5.68-2.18,8.71-1.45,3.04-3,6.14-4.65,9.31-1.65,3.17-2.94,6.27-3.86,9.31-.27.93-.63,1.72-1.09,2.38-.46.66-1.35.99-2.67.99-1.45,0-3.1-.66-4.95-1.98-1.85-1.32-3.66-2.94-5.45-4.85-1.78-1.91-3.24-3.83-4.36-5.74-1.12-1.91-1.68-3.4-1.68-4.46,0-3.17.86-6.2,2.57-9.11,1.71-2.9,2.57-5.21,2.57-6.93,0-.66-.07-1.22-.2-1.68-.13-.46-.59-.69-1.39-.69-2.51,0-5.18,1.55-8.02,4.65-2.84,3.1-5.25,6.93-7.23,11.48-1.98,4.55-2.97,9.08-2.97,13.56,0,2.64,2.04,4.69,6.14,6.14l19.6,7.52c10.43,4.09,15.64,10.69,15.64,19.8,0,6.87-1.75,12.84-5.25,17.92-3.5,5.08-8.09,8.98-13.76,11.68-5.68,2.7-11.68,4.06-18.02,4.06Z"/>
      <path class="cls-1" d="m608.16,172.61c-4.36,0-8.55-.83-12.57-2.47-4.03-1.65-7.29-4.46-9.8-8.42-6.34-3.04-11.22-8.32-14.65-15.84-3.43-7.52-5.15-16.3-5.15-26.33,0-8.71,1.19-16.99,3.56-24.85,2.38-7.85,5.61-14.82,9.7-20.89,4.09-6.07,8.81-10.86,14.16-14.35,5.35-3.5,10.99-5.25,16.93-5.25,5.01,0,10.03.89,15.05,2.67,5.01,1.78,9.37,4.98,13.07,9.6,6.47,3.3,11.45,8.12,14.95,14.46,3.5,6.34,5.25,13.27,5.25,20.79,0,9.64-.99,18.75-2.97,27.32-1.98,8.58-5.02,16.14-9.11,22.67-4.09,6.53-9.31,11.65-15.64,15.34-6.34,3.7-13.93,5.54-22.77,5.54Zm-3.96-21.78c3.96,0,7.46-1.71,10.49-5.15,3.04-3.43,5.61-7.82,7.72-13.17,2.11-5.35,3.73-11.12,4.85-17.32,1.12-6.2,1.68-12.08,1.68-17.62,0-6.07-.69-11.15-2.08-15.25-1.39-4.09-3.6-6.14-6.63-6.14-3.96,0-7.46,1.72-10.49,5.15-3.04,3.43-5.61,7.82-7.72,13.17-2.11,5.35-3.73,11.12-4.85,17.33-1.12,6.21-1.68,12.08-1.68,17.62,0,6.07.72,11.16,2.18,15.25,1.45,4.09,3.63,6.14,6.53,6.14Z"/>
      <path class="cls-1" d="m801.41,172.42c-4.09,0-7.79-1.22-11.09-3.66-3.3-2.44-5.94-5.64-7.92-9.6s-2.97-8.12-2.97-12.47c0-3.96.3-8.38.89-13.27.59-4.88,1.35-9.77,2.28-14.65.92-4.88,1.91-9.24,2.97-13.07l-.79-.4c-3.04,6.07-6.24,12.87-9.6,20.39-3.37,7.52-6.43,15.25-9.21,23.17s-5.02,15.51-6.73,22.77c-3.96-.13-7.76-.4-11.38-.79-3.63-.4-6.37-1.71-8.22-3.96-3.43-1.71-5.94-4.36-7.52-7.92s-2.57-7.65-2.97-12.28c-.4-4.62-.59-9.24-.59-13.86,0-1.71.16-4.22.5-7.52.33-3.3.79-6.9,1.39-10.79.59-3.89,1.22-7.55,1.88-10.99h-.59c-5.54,10.82-10.79,21.91-15.74,33.26-4.95,11.35-9.21,22.97-12.77,34.85-3.96-.13-7.2-.79-9.7-1.98-2.51-1.19-4.95-2.97-7.33-5.35-3.83-2.11-6.53-4.92-8.12-8.42-1.58-3.5-2.38-7.23-2.38-11.19,0-12.14.76-25.61,2.28-40.39,1.52-14.78,3.93-29.9,7.23-45.34.66-2.64,1.71-3.96,3.17-3.96,3.3,0,6.6.79,9.9,2.38,3.3,1.58,6.04,3.96,8.22,7.13s3.27,7.13,3.27,11.88c0,.93-.07,1.95-.2,3.07-.13,1.12-.33,2.21-.59,3.27l-7.92,37.22h.4c5.15-11.35,10.26-21.88,15.34-31.58,5.08-9.7,10.4-17.65,15.94-23.86,1.19-1.45,2.97-2.18,5.35-2.18,3.69,0,7.65,1.58,11.88,4.75,3.04,1.19,5.38,2.81,7.03,4.85,1.65,2.05,2.47,4.19,2.47,6.44v.99c0,.4-.07.73-.2.99-2.11,7.66-3.83,15.84-5.15,24.55-1.32,8.71-2.05,17.1-2.18,25.15l.99.2c4.22-10.16,8.58-19.9,13.07-29.21,4.49-9.31,10.43-18.71,17.82-28.21,1.05-1.19,2.64-1.78,4.75-1.78,3.83,0,7.98,1.58,12.47,4.75,3.04,1.06,5.54,2.51,7.52,4.36,1.98,1.85,3.43,3.76,4.36,5.74-1.98,9.64-3.63,20.43-4.95,32.37-1.32,11.95-1.98,23.27-1.98,33.96,0,3.43.1,6.73.3,9.9s.43,6.21.69,9.11c-1.72.79-3.56,1.19-5.54,1.19Z"/>
      <path class="cls-1" d="m851.5,172.02c-3.7,0-7.42-1.16-11.19-3.46-3.76-2.31-7.26-5.41-10.49-9.31-3.24-3.89-5.84-8.22-7.82-12.97-1.98-4.75-2.97-9.5-2.97-14.26,0-9.37,1.35-18.68,4.06-27.92,2.7-9.24,6.47-17.62,11.29-25.15,4.82-7.52,10.52-13.53,17.13-18.02,6.6-4.49,13.73-6.73,21.38-6.73,3.43,0,7.19,1.02,11.29,3.07,4.09,2.05,7.06,5.05,8.91,9.01,5.01,2.38,8.71,5.94,11.09,10.69s3.3,9.11,2.77,13.07c-.4,3.17-1.78,6.77-4.16,10.79-2.38,4.03-5.41,8.12-9.11,12.28-3.7,4.16-7.79,7.99-12.28,11.48-4.49,3.5-9.08,6.34-13.76,8.51-4.69,2.18-9.21,3.27-13.56,3.27-1.58,0-3.3-.53-5.15-1.58.4,4.23,1.62,7.23,3.66,9.01,2.04,1.78,4.78,2.67,8.22,2.67,5.02,0,10.56-1.78,16.63-5.35,6.07-3.56,12.54-8.32,19.4-14.26,3.04,1.45,5.35,3.33,6.93,5.64,1.58,2.31,2.18,5.18,1.78,8.61-.53,3.96-2.61,7.76-6.24,11.38-3.63,3.63-8.19,6.93-13.66,9.9-5.48,2.97-11.22,5.31-17.23,7.03-6.01,1.71-11.65,2.57-16.93,2.57Zm29.5-96.03c-5.15.27-9.83,2.64-14.06,7.13-4.23,4.49-7.79,10-10.69,16.53-2.91,6.53-5.02,13.04-6.34,19.5,4.36-.92,8.48-3.2,12.38-6.83,3.89-3.63,7.33-7.79,10.3-12.47,2.97-4.68,5.25-9.24,6.83-13.66,1.58-4.42,2.11-7.82,1.58-10.2Z"/>
    </g>
  </g>
</svg>