<?xml version="1.0" encoding="UTF-8"?>
<svg id="Layer_1" data-name="Layer 1" xmlns="http://www.w3.org/2000/svg" viewBox="0 0 2805.66 466.58">
  <defs>
    <style>
      .cls-1 {
        fill: #51372a;
        stroke-width: 0px;
      }
    </style>
  </defs>
  <g>
    <ellipse class="cls-1" cx="640.08" cy="201.69" rx="22.62" ry="17.31" transform="translate(-25.19 113.41) rotate(-9.93)"/>
    <g>
      <ellipse class="cls-1" cx="630.89" cy="242.29" rx="17.31" ry="21.59" transform="translate(384.46 871.58) rotate(-89.62)"/>
      <ellipse class="cls-1" cx="627.97" cy="161.7" rx="24.15" ry="17.61" transform="translate(-17.72 221.51) rotate(-19.73)"/>
      <path class="cls-1" d="m602.59,189.37c9.07,23.41-5.85,59.19-27.66,57.78-20.54-1.33-14.94-30.3-20.46-41.17-7.18-14.16-25.49-30.86-10.49-43.25,16.94-13.97,50.64,6.09,58.61,26.64h0Z"/>
      <ellipse class="cls-1" cx="595.01" cy="133.09" rx="22.37" ry="17.34" transform="translate(37.51 379.96) rotate(-36.49)"/>
    </g>
  </g>
  <g>
    <ellipse class="cls-1" cx="418.59" cy="354.79" rx="16.77" ry="22.91" transform="translate(-72.04 600.53) rotate(-66.89)"/>
    <path class="cls-1" d="m388.45,319.84c-.07,38.93-42.48,59.69-57.84,45.21-16.45-15.53,4.09-27.95,6.77-44.37,1.64-10.09-8.35-32.52,10.41-41.35,16.37-7.7,40.72,15.11,40.66,40.51h0Z"/>
    <ellipse class="cls-1" cx="423.63" cy="312.31" rx="22.91" ry="18.01" transform="translate(-3.66 5.03) rotate(-.68)"/>
    <ellipse class="cls-1" cx="407.39" cy="272.61" rx="22.91" ry="16.77" transform="translate(-26.38 44.3) rotate(-6.03)"/>
    <ellipse class="cls-1" cx="391.93" cy="387.29" rx="16.71" ry="21.27" transform="translate(-127.31 571.68) rotate(-64.21)"/>
  </g>
  <g>
    <ellipse class="cls-1" cx="302.14" cy="194.95" rx="17.31" ry="22.62" transform="translate(21.65 419.93) rotate(-71.56)"/>
    <g>
      <ellipse class="cls-1" cx="274.76" cy="226.31" rx="17.31" ry="21.59" transform="translate(-55.79 358.38) rotate(-61.26)"/>
      <ellipse class="cls-1" cx="310.48" cy="154.01" rx="17.61" ry="24.15" transform="translate(111.6 437.85) rotate(-81.36)"/>
      <path class="cls-1" d="m275,166.29c-3.14,24.91-33.26,49.3-51.79,37.7-17.44-10.93,1.25-33.76,1.56-45.94.41-15.87-7.76-39.27,11.32-43.04,21.55-4.24,41.66,29.42,38.91,51.29h0Z"/>
      <ellipse class="cls-1" cx="295.06" cy="113.17" rx="22.37" ry="17.34" transform="translate(-13.03 42.84) rotate(-8.13)"/>
    </g>
  </g>
  <g>
    <ellipse class="cls-1" cx="735.55" cy="390.28" rx="16.77" ry="22.91" transform="translate(44.93 855.46) rotate(-61.91)"/>
    <path class="cls-1" d="m708.56,352.85c-3.45,38.77-47.5,55.79-61.54,40.03-15.04-16.9,6.5-27.49,10.59-43.62,2.51-9.91-5.5-33.12,13.95-40.29,16.97-6.25,39.25,18.58,37,43.88h0Z"/>
    <ellipse class="cls-1" cx="744.26" cy="348.4" rx="18.01" ry="22.91" transform="translate(341.06 1064.45) rotate(-85.7)"/>
    <ellipse class="cls-1" cx="731.53" cy="307.44" rx="22.91" ry="16.77" transform="translate(-5.53 13.51) rotate(-1.05)"/>
    <ellipse class="cls-1" cx="706.18" cy="420.35" rx="16.71" ry="21.27" transform="translate(-16.25 812.12) rotate(-59.23)"/>
  </g>
  <g>
    <ellipse class="cls-1" cx="112.33" cy="285.04" rx="16.77" ry="22.91" transform="translate(-192.75 256.9) rotate(-63.22)"/>
    <path class="cls-1" d="m84.49,248.23c-2.56,38.84-46.21,56.86-60.61,41.42-15.42-16.55,5.87-27.63,9.59-43.85,2.29-9.96-6.25-32.98,13.03-40.6,16.83-6.64,39.67,17.68,37.99,43.02h0Z"/>
    <ellipse class="cls-1" cx="120.08" cy="242.97" rx="18.01" ry="22.91" transform="translate(-128.82 350.21) rotate(-87.01)"/>
    <ellipse class="cls-1" cx="106.41" cy="202.31" rx="22.91" ry="16.77" transform="translate(-8.25 4.56) rotate(-2.36)"/>
    <ellipse class="cls-1" cx="83.64" cy="315.77" rx="16.71" ry="21.27" transform="translate(-232.44 233.32) rotate(-60.54)"/>
  </g>
  <g>
    <ellipse class="cls-1" cx="945.74" cy="235.5" rx="17.31" ry="22.62" transform="translate(669.53 1170.16) rotate(-87.52)"/>
    <g>
      <ellipse class="cls-1" cx="928.04" cy="273.18" rx="17.31" ry="21.59" transform="translate(456.22 1117.73) rotate(-77.21)"/>
      <ellipse class="cls-1" cx="942.51" cy="193.84" rx="24.15" ry="17.61" transform="translate(-17.02 121.66) rotate(-7.32)"/>
      <path class="cls-1" d="m911.77,215.41c3.82,24.81-18.43,56.55-39.44,50.48-19.77-5.71-8.08-32.8-11.13-44.6-3.97-15.38-18.26-35.62-.95-44.49,19.55-10,48.14,16.84,51.51,38.62h0Z"/>
      <ellipse class="cls-1" cx="916.46" cy="158.82" rx="22.37" ry="17.34" transform="translate(14.96 387.76) rotate(-24.08)"/>
    </g>
  </g>
  <g>
    <ellipse class="cls-1" cx="1045.99" cy="404.49" rx="16.77" ry="22.91" transform="translate(419.7 1334.79) rotate(-77.19)"/>
    <path class="cls-1" d="m1010.08,375.49c6.89,38.31-31.12,66.33-48.82,54.83-18.96-12.34-.97-28.23-1.28-44.87-.19-10.22-14.03-30.5,2.84-42.54,14.73-10.5,42.76,7.58,47.25,32.58h0Z"/>
    <ellipse class="cls-1" cx="1043.35" cy="361.79" rx="22.91" ry="18.01" transform="translate(-49.81 205.36) rotate(-10.98)"/>
    <ellipse class="cls-1" cx="1020.27" cy="325.63" rx="22.91" ry="16.77" transform="translate(-50.4 300.08) rotate(-16.33)"/>
    <ellipse class="cls-1" cx="1025.57" cy="441.23" rx="16.71" ry="21.27" transform="translate(326.52 1311.76) rotate(-74.51)"/>
  </g>
  <g>
    <ellipse class="cls-1" cx="1241.53" cy="207.98" rx="22.62" ry="17.31" transform="translate(-15.62 143.03) rotate(-6.55)"/>
    <g>
      <ellipse class="cls-1" cx="1229.97" cy="247.98" rx="17.31" ry="21.59" transform="translate(901.98 1459.06) rotate(-86.25)"/>
      <ellipse class="cls-1" cx="1231.8" cy="167.35" rx="24.15" ry="17.61" transform="translate(2.71 353.6) rotate(-16.35)"/>
      <path class="cls-1" d="m1204.83,193.48c7.67,23.9-9.32,58.74-31.02,56.05-20.43-2.54-13.13-31.13-18-42.3-6.33-14.56-23.62-32.31-7.92-43.79,17.74-12.94,50.19,9.07,56.94,30.05h0Z"/>
      <ellipse class="cls-1" cx="1200.58" cy="136.85" rx="22.37" ry="17.34" transform="translate(120.23 678.12) rotate(-33.11)"/>
    </g>
  </g>
  <g>
    <ellipse class="cls-1" cx="1337.06" cy="376.96" rx="16.77" ry="22.91" transform="translate(872.92 1686.31) rotate(-86.23)"/>
    <path class="cls-1" d="m1297.04,353.96c12.82,36.75-20.32,70.39-39.6,61.81-20.66-9.21-5.39-27.73-8.31-44.11-1.79-10.06-18.65-27.92-3.87-42.46,12.89-12.68,43.42.77,51.78,24.76h0Z"/>
    <ellipse class="cls-1" cx="1327.75" cy="335.2" rx="22.91" ry="18.01" transform="translate(-34.54 474.67) rotate(-20.01)"/>
    <ellipse class="cls-1" cx="1299.28" cy="303.12" rx="22.91" ry="16.77" transform="translate(-4.58 585.87) rotate(-25.37)"/>
    <ellipse class="cls-1" cx="1322.66" cy="416.45" rx="16.71" ry="21.27" transform="translate(760.2 1683.93) rotate(-83.55)"/>
  </g>
  <g>
    <ellipse class="cls-1" cx="1530.8" cy="171.42" rx="22.62" ry="17.31" transform="translate(-8.87 217.82) rotate(-8.12)"/>
    <g>
      <ellipse class="cls-1" cx="1520.33" cy="211.71" rx="17.31" ry="21.59" transform="translate(1250.63 1722.83) rotate(-87.81)"/>
      <ellipse class="cls-1" cx="1519.96" cy="131.07" rx="24.15" ry="17.61" transform="translate(33.39 473.95) rotate(-17.92)"/>
      <path class="cls-1" d="m1493.71,157.92c8.32,23.68-7.72,58.97-29.48,56.87-20.49-1.98-13.98-30.76-19.14-41.79-6.73-14.38-24.5-31.65-9.11-43.56,17.38-13.42,50.42,7.7,57.74,28.48h0Z"/>
      <ellipse class="cls-1" cx="1487.92" cy="101.44" rx="22.37" ry="17.34" transform="translate(206.59 864.58) rotate(-34.68)"/>
    </g>
  </g>
  <g>
    <ellipse class="cls-1" cx="1633.44" cy="337.43" rx="22.91" ry="16.77" transform="translate(-14.74 81.51) rotate(-2.85)"/>
    <path class="cls-1" d="m1591.04,319.19c16.97,35.03-12.07,72.27-32.21,65.97-21.58-6.77-8.55-26.92-13.34-42.86-2.94-9.79-21.74-25.58-8.74-41.73,11.35-14.09,43.22-4.24,54.29,18.62h0Z"/>
    <ellipse class="cls-1" cx="1619.38" cy="297.02" rx="22.91" ry="18.01" transform="translate(38.68 757.46) rotate(-26.63)"/>
    <ellipse class="cls-1" cx="1587.4" cy="268.43" rx="22.91" ry="16.77" transform="translate(98.82 881.63) rotate(-31.99)"/>
    <ellipse class="cls-1" cx="1623.69" cy="378.32" rx="21.27" ry="16.71" transform="translate(-1.09 4.72) rotate(-.17)"/>
  </g>
  <g>
    <ellipse class="cls-1" cx="1808.16" cy="99.37" rx="22.62" ry="17.31" transform="translate(-1.84 155.98) rotate(-4.94)"/>
    <g>
      <ellipse class="cls-1" cx="1795.47" cy="139.02" rx="17.31" ry="21.59" transform="translate(1489.02 1913.6) rotate(-84.63)"/>
      <ellipse class="cls-1" cx="1799.57" cy="58.48" rx="24.15" ry="17.61" transform="translate(44.33 459.74) rotate(-14.74)"/>
      <path class="cls-1" d="m1771.88,83.84c7,24.11-10.98,58.45-32.59,55.15-20.35-3.11-12.25-31.48-16.8-42.79-5.92-14.73-22.7-32.96-6.68-44,18.1-12.44,49.91,10.48,56.07,31.64h0Z"/>
      <ellipse class="cls-1" cx="1769.22" cy="27.11" rx="22.37" ry="17.34" transform="translate(246.53 928.39) rotate(-31.5)"/>
    </g>
  </g>
  <g>
    <ellipse class="cls-1" cx="1913.28" cy="257.85" rx="22.91" ry="16.77" transform="translate(-11.26 105.33) rotate(-3.14)"/>
    <path class="cls-1" d="m1870.79,239.83c17.15,34.94-11.69,72.33-31.87,66.13-21.62-6.65-8.69-26.88-13.56-42.79-2.99-9.77-21.87-25.47-8.96-41.69,11.27-14.14,43.2-4.46,54.39,18.34h0Z"/>
    <ellipse class="cls-1" cx="1899.01" cy="217.52" rx="22.91" ry="18.01" transform="translate(107.44 883.72) rotate(-26.93)"/>
    <ellipse class="cls-1" cx="1866.88" cy="189.09" rx="22.91" ry="16.77" transform="translate(187.62 1026.4) rotate(-32.29)"/>
    <ellipse class="cls-1" cx="1903.75" cy="298.79" rx="21.27" ry="16.71" transform="translate(-2.36 15.47) rotate(-.47)"/>
  </g>
  <g>
    <ellipse class="cls-1" cx="2082.47" cy="109.5" rx="17.31" ry="22.62" transform="translate(1673.52 2154.35) rotate(-81.7)"/>
    <g>
      <ellipse class="cls-1" cx="2061.04" cy="145.19" rx="17.31" ry="21.59" transform="translate(1265.83 2052.18) rotate(-71.39)"/>
      <ellipse class="cls-1" cx="2083.48" cy="67.73" rx="24.15" ry="17.61" transform="translate(-1.06 54.62) rotate(-1.5)"/>
      <path class="cls-1" d="m2050.71,86.07c1.29,25.07-24.07,54.39-44.35,46.22-19.09-7.69-4.72-33.45-6.55-45.5-2.39-15.7-14.55-37.29,3.57-44.36,20.46-7.97,46.19,21.63,47.33,43.64h0Z"/>
      <ellipse class="cls-1" cx="2061.11" cy="30.25" rx="22.37" ry="17.34" transform="translate(94.34 647.42) rotate(-18.26)"/>
    </g>
  </g>
  <g>
    <ellipse class="cls-1" cx="2207.99" cy="262.7" rx="22.91" ry="16.77" transform="translate(-3.48 31.13) rotate(-.81)"/>
    <path class="cls-1" d="m2166.27,242.96c15.71,35.61-14.63,71.79-34.54,64.78-21.33-7.53-7.59-27.21-11.8-43.31-2.59-9.89-20.82-26.34-7.25-42.02,11.84-13.67,43.35-2.7,53.59,20.54h0Z"/>
    <ellipse class="cls-1" cx="2195.37" cy="221.82" rx="22.91" ry="18.01" transform="translate(106.86 933.85) rotate(-24.6)"/>
    <ellipse class="cls-1" cx="2164.43" cy="192.11" rx="22.91" ry="16.77" transform="translate(193.1 1106.17) rotate(-29.95)"/>
    <ellipse class="cls-1" cx="2196.79" cy="303.21" rx="16.71" ry="21.27" transform="translate(1821.99 2488.93) rotate(-88.13)"/>
  </g>
  <g>
    <ellipse class="cls-1" cx="2361.29" cy="131.77" rx="17.31" ry="22.62" transform="translate(1563.77 2358.2) rotate(-73.49)"/>
    <g>
      <ellipse class="cls-1" cx="2334.98" cy="164.03" rx="17.31" ry="21.59" transform="translate(1135.05 2173.8) rotate(-63.18)"/>
      <ellipse class="cls-1" cx="2368.25" cy="90.57" rx="17.61" ry="24.15" transform="translate(2001.47 2432) rotate(-83.29)"/>
      <path class="cls-1" d="m2333.2,104.04c-2.3,25-31.59,50.39-50.5,39.41-17.8-10.34.11-33.78.02-45.97-.12-15.88-9.07-38.98,9.87-43.4,21.39-4.96,42.62,28.01,40.61,49.95h0Z"/>
      <ellipse class="cls-1" cx="2351.48" cy="50.28" rx="22.37" ry="17.34" transform="translate(27.3 411.05) rotate(-10.05)"/>
    </g>
  </g>
  <g>
    <ellipse class="cls-1" cx="2489.52" cy="276.37" rx="16.77" ry="22.91" transform="translate(1609.13 2621.36) rotate(-75.76)"/>
    <path class="cls-1" d="m2454.36,246.48c5.93,38.47-32.77,65.53-50.18,53.59-18.64-12.81-.26-28.25-.15-44.88.07-10.22-13.26-30.84,3.91-42.46,14.99-10.13,42.56,8.65,46.42,33.75h0Z"/>
    <ellipse class="cls-1" cx="2487.96" cy="233.61" rx="22.91" ry="18.01" transform="translate(-4.3 415.78) rotate(-9.54)"/>
    <ellipse class="cls-1" cx="2465.79" cy="196.89" rx="22.91" ry="16.77" transform="translate(32.27 640.56) rotate(-14.9)"/>
    <ellipse class="cls-1" cx="2468.19" cy="312.59" rx="16.71" ry="21.27" transform="translate(1450.71 2582.92) rotate(-73.08)"/>
  </g>
  <g>
    <ellipse class="cls-1" cx="2637.8" cy="163.32" rx="17.31" ry="22.62" transform="translate(1282.37 2432.13) rotate(-62.69)"/>
    <g>
      <ellipse class="cls-1" cx="2605.91" cy="190.08" rx="17.31" ry="21.59" transform="translate(864.68 2138.16) rotate(-52.38)"/>
      <ellipse class="cls-1" cx="2652.36" cy="124.16" rx="17.61" ry="24.15" transform="translate(1735.89 2616.25) rotate(-72.49)"/>
      <path class="cls-1" d="m2615.41,130.82c-6.95,24.12-40.47,43.58-56.99,29.25-15.55-13.49,6.44-33.16,8.63-45.15,2.86-15.62-1.61-39.99,17.82-40.78,21.94-.86,36.62,35.5,30.54,56.68h0Z"/>
      <ellipse class="cls-1" cx="2643.43" cy="81.44" rx="17.34" ry="22.37" transform="translate(2527.4 2723.57) rotate(-89.25)"/>
    </g>
  </g>
  <g>
    <ellipse class="cls-1" cx="2760.87" cy="322.64" rx="16.77" ry="22.91" transform="translate(1466.4 2782.49) rotate(-68.91)"/>
    <path class="cls-1" d="m2729.52,288.77c1.3,38.9-40.35,61.16-56.21,47.23-16.98-14.94,3.11-28.08,5.2-44.58,1.29-10.14-9.49-32.2,8.94-41.69,16.09-8.27,41.23,13.66,42.07,39.05h0Z"/>
    <ellipse class="cls-1" cx="2764.42" cy="280.01" rx="22.91" ry="18.01" transform="translate(-10.12 130.45) rotate(-2.7)"/>
    <ellipse class="cls-1" cx="2746.79" cy="240.9" rx="22.91" ry="16.77" transform="translate(-6.67 387.09) rotate(-8.05)"/>
    <ellipse class="cls-1" cx="2735.38" cy="356.06" rx="16.71" ry="21.27" transform="translate(1307.03 2715.91) rotate(-66.23)"/>
  </g>
</svg>