<?xml version="1.0" encoding="UTF-8"?>
<svg id="Layer_1" data-name="Layer 1" xmlns="http://www.w3.org/2000/svg" viewBox="0 0 283.46 283.46">
  <defs>
    <style>
      .cls-1 {
        fill: #51372a;
        stroke-width: 0px;
      }
    </style>
  </defs>
  <path class="cls-1" d="m134.22,80.6v.29c0,5.76-1.01,11.29-2.84,16.42l.11-.34c-1.93,5.32-5.04,9.81-9.05,13.31l-.04.03c-3.89,3.5-9.06,5.63-14.72,5.63h-.44.02c-7.78-.06-14.82-3.21-19.94-8.3-5.76-5.3-10.28-11.83-13.17-19.19l-.12-.35c-2.65-6.44-4.23-13.91-4.33-21.74v-.32c0-5.76,1.01-11.29,2.84-16.42l-.11.34c1.93-5.32,5.04-9.81,9.05-13.31l.04-.03c3.89-3.5,9.06-5.64,14.73-5.64.17,0,.33,0,.5,0h-.03c7.78.05,14.82,3.2,19.94,8.3,5.7,5.29,10.19,11.81,13.07,19.12l.12.35c2.67,6.46,4.25,13.97,4.33,21.82v.03h.05Zm-49.34,69.67c0,.23,0,.5,0,.78,0,7.22-2.27,13.9-6.14,19.38l.07-.11c-3.63,5.18-9.57,8.53-16.29,8.53-.3,0-.61,0-.91-.02h.05c-7.87-.1-15.03-3.12-20.44-8.03l.03.03c-11.67-10.05-19.14-24.71-19.54-41.11v-.07c0-.22,0-.49,0-.76,0-7.25,2.27-13.97,6.14-19.48l-.07.11c3.61-5.22,9.56-8.6,16.31-8.6.3,0,.6,0,.9.02h-.05c7.87.1,15.03,3.12,20.44,8.03l-.03-.03c11.69,10.11,19.14,24.82,19.54,41.29v.06-.02Zm56.87-3.9c14.04.8,26.73,5.96,36.9,14.13l-.13-.1c13.1,9.35,24.07,20.7,32.74,33.71l.3.47c7.61,10.18,12.47,22.81,13.28,36.53v.18c.02.24.03.53.03.8,0,3.73-.91,7.26-2.53,10.35l.06-.12c-1.59,2.87-3.99,5.11-6.9,6.45l-.09.04c-2.69,1.28-5.82,2.29-9.08,2.85l-.22.03c-3.1.51-6.66.79-10.3.79h-.69.04c-9.91-.68-19.12-3.01-27.58-6.7l.54.21c-7.71-3.42-16.65-5.73-26.03-6.47l-.29-.02c-10.18.76-19.62,3.05-28.38,6.64l.62-.22c-8.5,3.48-18.36,5.78-28.66,6.41h-.26c-17.64.02-26.46-6.99-26.46-21.03.44-10.24,3.39-19.7,8.23-27.9l-.16.28c5.7-10.61,12.38-19.74,20.16-27.8l-.04.04c7.8-8.13,16.69-15.13,26.47-20.76l.57-.3c7.93-4.98,17.47-8.1,27.72-8.5h.11l.04.02Zm34.48-30.43h-.42c-5.67,0-10.84-2.14-14.74-5.65l.02.02c-4.04-3.54-7.16-8.02-9.01-13.13l-.07-.22c-1.74-4.79-2.74-10.32-2.74-16.08v-.3.02c.08-7.89,1.66-15.39,4.48-22.26l-.15.41c3.01-7.67,7.5-14.18,13.16-19.44l.04-.03c5.11-5.09,12.16-8.24,19.93-8.29h.43c5.67,0,10.84,2.14,14.74,5.65l-.02-.02c4.04,3.54,7.16,8.02,9.01,13.13l.07.22c1.76,4.82,2.78,10.38,2.78,16.18v.18h0c-.09,7.86-1.68,15.33-4.48,22.17l.15-.41c-3.01,7.71-7.53,14.24-13.26,19.5l-.04.04c-5.12,5.07-12.16,8.22-19.93,8.27h0l.06.03Zm62.31-14.99c.26,0,.55-.02.85-.02,6.75,0,12.7,3.38,16.26,8.54l.05.06c3.79,5.41,6.06,12.12,6.06,19.38,0,.27,0,.53,0,.79v-.04c-.41,16.48-7.87,31.14-19.47,41.11l-.07.06c-5.38,4.88-12.54,7.9-20.39,8h-.02c-.26,0-.56.02-.87.02-6.72,0-12.66-3.34-16.25-8.46l-.05-.06c-3.79-5.37-6.06-12.06-6.06-19.27,0-.27,0-.54,0-.81v.04c.4-16.53,7.86-31.25,19.47-41.3l.07-.06c5.38-4.86,12.52-7.88,20.35-7.98h.06Z"/>
</svg>